<svg width="100" height="100" viewBox="0 0 100 100" fill="none" xmlns="http://www.w3.org/2000/svg">
  <!-- Gear / Cog -->
  <path d="M50 15C52.2091 15 54 13.2091 54 11V4C54 1.79086 52.2091 0 50 0C47.7909 0 46 1.79086 46 4V11C46 13.2091 47.7909 15 50 15Z" fill="#F97316"/>
  <path d="M50 85C47.7909 85 46 86.7909 46 89V96C46 98.2091 47.7909 100 50 100C52.2091 100 54 98.2091 54 96V89C54 86.7909 52.2091 85 50 85Z" fill="#F97316"/>
  <path d="M85 50C85 52.2091 86.7909 54 89 54H96C98.2091 54 100 52.2091 100 50C100 47.7909 98.2091 46 96 46H89C86.7909 46 85 47.7909 85 50Z" fill="#F97316"/>
  <path d="M15 50C15 47.7909 13.2091 46 11 46H4C1.79086 46 0 47.7909 0 50C0 52.2091 1.79086 54 4 54H11C13.2091 54 15 52.2091 15 50Z" fill="#F97316"/>
  
  <path d="M74.7487 25.2513C76.3108 23.6892 76.3108 21.1565 74.7487 19.5944L69.799 14.6447C68.2369 13.0825 65.7042 13.0826 64.1421 14.6447C62.58 16.2068 62.58 18.7395 64.1421 20.3016L69.0919 25.2513C70.654 26.8134 73.1866 26.8134 74.7487 25.2513Z" fill="#F97316"/>
  <path d="M25.2513 74.7487C23.6892 76.3108 21.1565 76.3108 19.5944 74.7487L14.6447 69.799C13.0826 68.2369 13.0826 65.7042 14.6447 64.1421C16.2068 62.58 18.7395 62.58 20.3016 64.1421L25.2513 69.0919C26.8134 70.654 26.8134 73.1866 25.2513 74.7487Z" fill="#F97316"/>
  <path d="M74.7487 74.7487C73.1866 76.3108 73.1866 78.8435 74.7487 80.4056L79.6985 85.3553C81.2606 86.9175 83.7933 86.9175 85.3553 85.3553C86.9175 83.7932 86.9175 81.2606 85.3553 79.6985L80.4056 74.7487C78.8435 73.1866 76.3108 73.1866 74.7487 74.7487Z" fill="#F97316"/>
  <path d="M25.2513 25.2513C26.8134 23.6892 26.8134 21.1565 25.2513 19.5944L20.3016 14.6447C18.7395 13.0825 16.2068 13.0826 14.6447 14.6447C13.0826 16.2068 13.0826 18.7395 14.6447 20.3016L19.5944 25.2513C21.1565 26.8134 23.6892 26.8134 25.2513 25.2513Z" fill="#F97316"/>

  <circle cx="50" cy="50" r="30" stroke="#F97316" stroke-width="6"/>
  
  <!-- Letter K (Changed to dark for light mode) -->
  <path d="M42 35V65M42 50L58 35M48 50L58 65" stroke="#111111" stroke-width="7" stroke-linecap="round" stroke-linejoin="round"/>
  
  <!-- Checkmark -->
  <circle cx="72" cy="72" r="12" fill="#22C55E"/>
  <path d="M66 72L70 76L78 68" stroke="white" stroke-width="2.5" stroke-linecap="round" stroke-linejoin="round"/>
</svg>
